<?xml version="1.0" encoding="utf-8"?>
<!-- Generator: Adobe Illustrator 19.0.0, SVG Export Plug-In . SVG Version: 6.00 Build 0)  -->
<svg version="1.1" id="Layer_1" xmlns="http://www.w3.org/2000/svg" xmlns:xlink="http://www.w3.org/1999/xlink" x="0px" y="0px"
	 viewBox="0 0 100 100" style="enable-background:new 0 0 100 100;" xml:space="preserve">
<style type="text/css">
	.st0{fill:#414042;stroke:#414042;stroke-width:3;stroke-miterlimit:10;}
	.st1{fill:#414042;stroke:#414042;stroke-miterlimit:10;}
	.st2{fill:none;stroke:#414042;stroke-width:3;stroke-miterlimit:10;}
</style>
<g id="XMLID_31_">
	<g id="XMLID_24_">
		<path id="XMLID_25_" class="st0" d="M60.9,43.8H33.6c-1,0-1.9-0.8-1.9-1.9v-8.7c0-1,0.8-1.9,1.9-1.9h27.3c1,0,1.9,0.8,1.9,1.9V42
			C62.7,43,61.9,43.8,60.9,43.8z"/>
		<path id="XMLID_26_" class="st1" d="M49.8,76.9h-5.1c-0.8,0-1.4-0.6-1.4-1.4V52.1c0-0.8,0.6-1.4,1.4-1.4h5.1
			c0.8,0,1.4,0.6,1.4,1.4v23.4C51.2,76.2,50.5,76.9,49.8,76.9z"/>
		<path id="XMLID_27_" class="st1" d="M46.3,50.6h25.3c0.5,0,1,0.4,1,1v2.8c0,0.5-0.4,1-1,1H46.3c-0.5,0-1-0.4-1-1v-2.8
			C45.4,51.1,45.8,50.6,46.3,50.6z"/>
		<path id="XMLID_28_" class="st1" d="M67.9,54.4V37c0-0.5,0.4-1,1-1h2.8c0.5,0,1,0.4,1,1v17.4c0,0.5-0.4,1-1,1h-2.8
			C68.3,55.4,67.9,54.9,67.9,54.4z"/>
		<path id="XMLID_29_" class="st1" d="M58.8,36.1h11.7c0.5,0,1,0.4,1,1v2.8c0,0.5-0.4,1-1,1H58.8c-0.5,0-1-0.4-1-1V37
			C57.8,36.5,58.2,36.1,58.8,36.1z"/>
	</g>
	<circle id="XMLID_30_" class="st2" cx="50" cy="50" r="48"/>
</g>
<g id="XMLID_1_">
</g>
<g id="XMLID_2_">
</g>
<g id="XMLID_3_">
</g>
<g id="XMLID_4_">
</g>
<g id="XMLID_5_">
</g>
<g id="XMLID_6_">
</g>
</svg>
