<?xml version="1.0" encoding="utf-8"?>
<!-- Generator: Adobe Illustrator 19.0.0, SVG Export Plug-In . SVG Version: 6.00 Build 0)  -->
<svg version="1.1" id="Layer_1" xmlns="http://www.w3.org/2000/svg" xmlns:xlink="http://www.w3.org/1999/xlink" x="0px" y="0px"
	 viewBox="0 0 325.7 62.2" style="enable-background:new 0 0 325.7 62.2;" xml:space="preserve">
<style type="text/css">
	.st0{fill:#414042;}
	.st1{fill:#414042;stroke:#414042;stroke-miterlimit:10;}
</style>
<g id="XMLID_11_">
	<g id="XMLID_15_">
		<path id="XMLID_157_" class="st0" d="M19,8.2v26.7h-8.5V8.2h-10V1.3h28.7v6.9H19z"/>
		<path id="XMLID_159_" class="st0" d="M61.8,34.9l-6.2-23.2l-6.3,23.2h-8.8l-11-33.6h9.1L45.1,26l6.4-24.7h8.4L66.4,26l6.5-24.7
			h8.7L70.6,34.9H61.8z"/>
		<path id="XMLID_161_" class="st0" d="M84.7,34.9V1.3h8.5v33.6H84.7z"/>
		<path id="XMLID_163_" class="st0" d="M129.7,17.8v13.1c-3.6,2.5-9.3,4.4-14,4.4c-10.2,0-18-7.4-18-17.2c0-9.7,7.9-17.1,18.5-17.1
			c5,0,10.3,1.9,13.7,5l-4.8,5.8c-2.4-2.3-5.9-3.6-9-3.6c-5.5,0-9.7,4.3-9.7,9.9c0,5.7,4.3,10,9.8,10c1.7,0,3.9-0.6,6-1.6v-8.7
			H129.7z"/>
		<path id="XMLID_165_" class="st0" d="M143.2,28.7l-2.4,6.2H132l14.5-33.6h8.8l14.2,33.6h-9.1l-2.4-6.2H143.2z M150.6,9.8
			l-4.9,12.4h9.7L150.6,9.8z"/>
		<path id="XMLID_168_" class="st0" d="M199,25.5h-0.2h-6.5v9.5h-8.5V1.3h15c8.9,0,14,4.2,14,11.7c0,5.1-2.2,8.8-6.1,10.8l7.1,11.1
			H204L199,25.5z M198.7,18.7c3.7,0,5.9-1.9,5.9-5.4c0-3.5-2.2-5.3-5.9-5.3h-6.5v10.7H198.7z"/>
		<path id="XMLID_171_" class="st0" d="M252.6,18.1c0,9.8-7.8,17.2-18.2,17.2c-10.4,0-18.1-7.4-18.1-17.2c0-9.8,7.8-17,18.1-17
			C244.8,1,252.6,8.3,252.6,18.1z M225,18.1c0,5.7,4.4,10,9.5,10c5.2,0,9.3-4.4,9.3-10c0-5.7-4.1-9.9-9.3-9.9S225,12.4,225,18.1z"/>
		<path id="XMLID_174_" class="st0" d="M263.8,28.7l-2.4,6.2h-8.8l14.5-33.6h8.8L290,34.9h-9.1l-2.4-6.2H263.8z M271.2,9.8
			l-4.9,12.4h9.7L271.2,9.8z"/>
		<path id="XMLID_177_" class="st0" d="M307.6,1.3c10.6,0,17.9,6.8,17.9,16.8c0,9.9-7.4,16.8-18.2,16.8h-14.1V1.3H307.6z
			 M301.7,28.1h6.1c5.2,0,9-4,9-9.9c0-6-3.9-10-9.4-10h-5.7V28.1z"/>
	</g>
	<g id="XMLID_14_">
		<path id="XMLID_124_" class="st0" d="M82.2,61.5l-3-9.8l-3,9.8H74l-4.2-12.6h2.3l3.1,10.2l3-10.2l2.1,0l3.1,10.2l3-10.2h2.2
			l-4.2,12.6H82.2z"/>
		<path id="XMLID_126_" class="st0" d="M92.2,50.8v3.4h6.2v1.9h-6.2v3.5h7.1v1.9H90V48.9h9v1.9H92.2z"/>
		<path id="XMLID_128_" class="st0" d="M107.3,48.9c2.6,0,4.2,1.2,4.2,3.2c0,1.4-0.8,2.5-2.2,2.8c1.7,0.3,2.7,1.5,2.7,3.2
			c0,2.2-1.7,3.5-4.6,3.5h-5.6V48.9H107.3z M104,54.1h3.2c1.4,0,2.2-0.6,2.2-1.7s-0.8-1.6-2.2-1.6H104V54.1z M104,59.6h3.2
			c1.7,0,2.6-0.6,2.6-1.8c0-1.1-1-1.8-2.6-1.8H104V59.6z"/>
		<path id="XMLID_132_" class="st0" d="M124.4,48.9c3.8,0,6.5,2.6,6.5,6.3c0,3.6-2.8,6.3-6.6,6.3h-5.1V48.9H124.4z M121.3,59.6h3.1
			c2.4,0,4.3-1.8,4.3-4.4c0-2.6-1.9-4.4-4.4-4.4h-3V59.6z"/>
		<path id="XMLID_135_" class="st0" d="M135.3,50.8v3.4h6.2v1.9h-6.2v3.5h7.1v1.9h-9.2V48.9h9v1.9H135.3z"/>
		<path id="XMLID_137_" class="st0" d="M148.4,61.5l-5-12.6h2.3l3.9,10.2l3.9-10.2h2.2l-5.1,12.6H148.4z"/>
		<path id="XMLID_139_" class="st0" d="M159.5,50.8v3.4h6.2v1.9h-6.2v3.5h7.1v1.9h-9.2V48.9h9v1.9H159.5z"/>
		<path id="XMLID_141_" class="st0" d="M176.8,59.5v1.9h-7.6V48.9h2.1v10.7H176.8z"/>
		<path id="XMLID_143_" class="st0" d="M191.1,55.2c0,3.6-2.9,6.4-6.7,6.4s-6.7-2.8-6.7-6.4c0-3.6,2.9-6.4,6.7-6.4
			S191.1,51.6,191.1,55.2z M179.9,55.2c0,2.5,2.1,4.5,4.5,4.5s4.5-2,4.5-4.5c0-2.5-2-4.4-4.5-4.4C182,50.7,179.9,52.7,179.9,55.2z"
			/>
		<path id="XMLID_146_" class="st0" d="M198.4,48.9c3.2,0,5,1.6,5,4.3c0,2.8-1.8,4.5-5,4.5h-2.9v3.8h-2.1V48.9H198.4z M195.5,55.8
			h2.8c1.9,0,3-0.8,3-2.5c0-1.7-1.1-2.4-3-2.4h-2.8V55.8z"/>
		<path id="XMLID_149_" class="st0" d="M216.8,61.5l0-9.4l-4,8.1h-1.4l-4-8.1v9.4h-2V48.9h2.5l4.2,8.4l4.1-8.4h2.5v12.6H216.8z"/>
		<path id="XMLID_151_" class="st0" d="M224.3,50.8v3.4h6.2v1.9h-6.2v3.5h7.1v1.9h-9.2V48.9h9v1.9H224.3z"/>
		<path id="XMLID_153_" class="st0" d="M242.8,61.5l-6.7-9v9h-2.1V48.9h2.1l6.8,9.1v-9.1h2.1v12.6H242.8z"/>
		<path id="XMLID_155_" class="st0" d="M252.8,50.8v10.7h-2.1V50.8h-4v-1.9h10.1v1.9H252.8z"/>
	</g>
	<line id="XMLID_13_" class="st1" x1="8.6" y1="55.7" x2="60.8" y2="55.7"/>
	<line id="XMLID_12_" class="st1" x1="265.8" y1="55.7" x2="318" y2="55.7"/>
</g>
<g id="XMLID_123_">
</g>
<g id="XMLID_180_">
</g>
<g id="XMLID_181_">
</g>
<g id="XMLID_182_">
</g>
<g id="XMLID_183_">
</g>
<g id="XMLID_184_">
</g>
</svg>
